<svg xmlns="http://www.w3.org/2000/svg" xmlns:xlink="http://www.w3.org/1999/xlink" width="320" height="476" viewBox="0 0 320 476">
    <defs>
        <path id="a" d="M0 .785h441.841V245.18H0z"/>
        <path id="c" d="M0 476h441.842V.785H0z"/>
        <path id="e" d="M.88 8.49c-2.564 6.261.79 13.278 7.487 15.674 6.698 2.394 14.207-.738 16.77-6.998 2.563-6.26-.79-13.277-7.487-15.673A13.737 13.737 0 0 0 13.013.69C7.787.689 2.86 3.658.88 8.49z"/>
    </defs>
    <g fill="none" fill-rule="evenodd">
        <path fill="#FFF" d="M0-95h320v705H0z"/>
        <g transform="translate(-67)">
            <mask id="b" fill="#fff">
                <use xlink:href="#a"/>
            </mask>
            <path fill="#EFF1F5" d="M16.37 95.826c-3.572-13.75 9.49-26.386 22.071-28.84 12.583-2.456 25.722.884 38.176-2.289 19.015-4.846 32.25-23.386 46.57-38.232C141.056 7.94 167.02-6.463 189.226 4.702c13.408 6.741 22.118 21.196 32.173 33.213 10.054 12.02 24.484 22.642 38.609 18.096 6.163-1.983 11.32-6.62 16.907-10.15 14.153-8.943 31.78-10.659 47.095-4.58 22.872 9.076 38.355 33.295 60.009 45.568 14.476 8.203 31.859 11.215 43.213 24.203 12.135 13.883 13.89 35.12 14.521 54.547.11 3.339.205 6.705-.29 10-1.305 8.691-6.572 16.012-12.516 21.78-25.51 24.755-62.211 26.057-95.465 32.412-21.483 4.107-42.572 10.807-64.22 13.614-20.876 2.707-41.977 1.757-62.977.801-28.71-1.306-57.82-2.685-85.225-12.384-8.116-2.872-16.154-6.538-22.833-12.453-6.348-5.621-11.214-13.04-15.791-20.518-17.078-27.892-32.925-59.63-60.303-73.847-5.833-3.029-12.193-5.261-16.924-10.141-4.73-4.882-7.18-13.63-3.253-19.337" mask="url(#b)"/>
            <path fill="#C6C2AF" d="M91.206 159.241c0 3.316-6.74 6.005-15.054 6.005s-15.055-2.689-15.055-6.005 6.74-6.005 15.055-6.005c8.314 0 15.054 2.689 15.054 6.005"/>
            <path fill="#94C85B" d="M76.744 129.52s-10.293-1.218-14.649-7.585c-4.354-6.366-5.041-19.504 0-25.87 5.043-6.368 14.168-11.243 21.133-6.91 6.963 4.336 13.687 21.538 8.884 30.07-4.802 8.535-11.766 9.889-15.368 10.296"/>
            <path fill="#89B74E" d="M76.744 129.52c3.602-.406 10.566-1.76 15.368-10.294 4.803-8.533-1.92-25.735-8.884-30.07-2.912-1.812-6.202-2.01-9.412-1.167 0 0 4.118.71 7.623 3.068 3.507 2.358 12.254 22.292 3.188 28.997-9.066 6.705-22.532 1.881-22.532 1.881 4.356 6.367 14.649 7.586 14.649 7.586"/>
            <path fill="#695020" d="M72.623 160.685s1.316-37.795.94-38.989c-.376-1.196-5.07-6.657-5.07-6.657s6.008 4.95 6.572 2.903c.563-2.049 1.689-17.582 1.689-17.582s.375 15.703 1.877 15.533c1.502-.171 7.698-6.315 7.698-6.315s-7.135 8.192-7.135 11.265c0 3.07.565 39.842.565 39.842h-7.136z"/>
            <path fill="#C6C2AF" d="M136.239 159.241c0 3.316-6.74 6.005-15.054 6.005s-15.055-2.689-15.055-6.005 6.74-6.005 15.055-6.005c8.314 0 15.054 2.689 15.054 6.005"/>
            <path fill="#4B823D" d="M121.484 126.433s-8.184-2.21-11.647-13.752c-3.461-11.543-4.01-40.37 0-51.912 4.009-11.542 13.257-20.384 18.794-12.526 5.537 7.86 8.89 44.055 5.07 59.526-3.817 15.472-9.354 17.929-12.217 18.664"/>
            <path fill="#3F6D32" d="M118.58 47.297c6.751.72 10.215 16.34 11.65 27.63 1.433 11.29 2.564 36.181-6.818 39.127-9.294 2.917-14.01-3.241-14.098-3.358.166.704.34 1.373.523 1.985 3.463 11.542 11.647 13.752 11.647 13.752 2.864-.736 8.4-3.192 12.218-18.665 3.819-15.47.466-51.666-5.071-59.525-2.79-3.959-6.523-3.676-10.052-.946"/>
            <path fill="#695020" d="M117.811 160.685s1.046-42.104.746-43.518c-.298-1.417-4.03-7.884-4.03-7.884s4.778 5.863 5.225 3.437c.45-2.425 1.343-20.819 1.343-20.819s.299 18.596 1.494 18.394c1.193-.202 6.119-7.479 6.119-7.479s-5.672 9.703-5.672 13.34c0 3.637.449 44.529.449 44.529h-5.674z"/>
            <path fill="#C6C2AF" d="M211.482 159.241c0 3.316-6.74 6.005-15.054 6.005s-15.055-2.689-15.055-6.005 6.741-6.005 15.055-6.005c8.315 0 15.054 2.689 15.054 6.005"/>
            <path fill="#94C85B" d="M191.63 120.054s-17.678-5.985-21.815-18.825c-4.136-12.839.277-31.097 16.547-37.375 16.272-6.277 36.958 4.565 38.059 22.254 1.103 17.69-9.963 29.658-24.423 33.946h-8.368z"/>
            <path fill="#84AF4B" d="M224.421 86.108c-.506-8.13-5.15-14.81-11.6-19.05 8.225 13.031 1.338 37.415-15.49 41.738-16.57 4.258-25.549-3.558-25.822-3.8 5.923 10.246 20.122 15.058 20.122 15.058h8.367c14.46-4.287 25.526-16.257 24.423-33.946"/>
            <path fill="#695020" d="M193.054 160.685s1.258-44.34.897-45.868c-.358-1.53-4.852-8.52-4.852-8.52s5.752 6.334 6.29 3.714c.54-2.621 1.619-22.5 1.619-22.5s.358 20.097 1.797 19.879c1.437-.22 7.368-8.083 7.368-8.083s-6.83 10.486-6.83 14.418c0 3.93.54 46.96.54 46.96h-6.83z"/>
            <path fill="#C6C2AF" d="M363.494 158.076c0 3.316-6.74 6.005-15.055 6.005-8.314 0-15.054-2.689-15.054-6.005s6.74-6.005 15.054-6.005 15.055 2.69 15.055 6.005"/>
            <path fill="#88C881" d="M374.953 94.165c-2.326-8.324-10.009-12.201-16.985-12.226-2.804-7.24-12.112-11.178-19.661-8.266-8.755 3.378-11.13 13.203-8.905 20.112l.003.004c-2.628 1.16-4.968 3.192-6.698 6.223-3.939 6.899 1.142 16.099 8.779 17.791 6.978 1.546 12.705-3.112 14.872-8.377 3.189 3.514 7.73 5.814 13.512 5.99 10.398.314 17.864-11.304 15.083-21.251"/>
            <path fill="#6AA562" d="M357.052 106.816c-6.518.628-10.29-2.787-10.29-2.787s-4.458 4.848-13.371 5.524c-8.25.626-11.549-4.636-11.996-5.423-.6 6.008 3.905 12.303 10.09 13.673 6.979 1.546 12.706-3.113 14.873-8.377 3.189 3.514 7.73 5.815 13.512 5.99 10.398.315 17.864-11.304 15.083-21.252-2.326-8.323-10.01-12.2-16.985-12.225 12.567 9.124 5.602 24.251-.916 24.877"/>
            <path fill="#695020" d="M343.93 159.52s1.26-44.34.9-45.867c-.36-1.532-4.853-8.52-4.853-8.52s5.752 6.333 6.29 3.713c.54-2.62 1.618-22.5 1.618-22.5s.359 20.097 1.798 19.88c1.437-.22 7.368-8.084 7.368-8.084s-6.831 10.486-6.831 14.418c0 3.93.541 46.96.541 46.96h-6.83z"/>
            <mask id="d" fill="#fff">
                <use xlink:href="#c"/>
            </mask>
            <path fill="#546080" d="M63.179 167.161h325.565v-11.609H63.18z" mask="url(#d)"/>
            <path fill="#262E46" d="M63.179 476h325.565V167.161H63.18z" mask="url(#d)"/>
            <path fill="#BDBFC8" d="M63.178 204.515h27.191v-5.932H63.178zM112.903 204.515h27.19v-5.932h-27.19zM162.627 204.515h27.191v-5.932h-27.191zM212.352 204.515h27.19v-5.932h-27.19zM258.02 204.515h27.191v-5.932h-27.19zM307.744 204.515h27.191v-5.932h-27.191zM357.468 204.515h27.192v-5.932h-27.192z" mask="url(#d)"/>
            <path fill="#FCC9A7" d="M178.152 263.802l-9.795 5.817 6.473 7.32 9.593-5.765zM255.188 294.517l2.982 10.4 9.526-3.442-2.99-10.208z" mask="url(#d)"/>
            <path fill="#0B2132" d="M237.62 207.71l-7.583 27.427c-1.518 5.49-4.041 10.7-7.46 15.402l-38.154 24.298-7.388-12.156 31.628-25.67 10.255-49.803 18.702 20.503z" mask="url(#d)"/>
            <path fill="#1F252A" d="M169.76 267.473c.642-.124 1.24.353 1.18.957-.117 1.184.054 3.078 1.69 5.049 1.698 2.047 3.465 2.142 4.538 1.932.565-.11 1.118.216 1.206.744l2.836 16.902a3.685 3.685 0 0 1-.769 2.913c-.625.787-1.914.733-2.46-.102l-15.065-23.103c-.593-.91-.24-2.092.772-2.59l4.975-2.454a.939.939 0 0 1 .263-.087l.834-.161z" mask="url(#d)"/>
            <path fill="#0C2C40" d="M246.65 178.407l21.63 115.21-15.677 4.37-14.88-58.64-19.006-38.954c-.925-1.743-1.821-3.566-2.558-5.436-1.395-3.54-1.86-7.338-1.546-11.094l.623-7.446 31.414 1.99z" mask="url(#d)"/>
            <path fill="#1F252A" d="M256.389 303.025c.07-.602.745-.98 1.347-.743 1.184.467 3.187.897 5.72.065 2.629-.865 3.27-2.388 3.383-3.398.06-.53.566-.917 1.136-.832l18.276 2.698c1.11.164 2.103.73 2.761 1.571.62.792.167 1.91-.86 2.133l-28.417 6.153c-1.117.242-2.226-.432-2.428-1.476l-.998-5.13a.857.857 0 0 1-.012-.257l.092-.784z" mask="url(#d)"/>
            <path stroke="#0B2132" stroke-linecap="round" stroke-linejoin="round" stroke-width=".741" d="M251.73 292.677l15.3-3.497M215.418 179.148l31.252 1.981M228.55 179.98l21.899 59.113 8.989 51.075" mask="url(#d)"/>
            <path fill="#FEEDE7" d="M241.958 183.188s-1.196 16.626-29.923 15.532l2.578-14.857 27.345-.675z" mask="url(#d)"/>
            <path fill="#FCC9A7" d="M274.879 138.928c2.717-2.968 4.072-6.702 7.283-4.19 3.212 2.512 5.154 7.781 2.436 10.75-2.72 2.97-8.703 5-11.915 2.488-3.211-2.513-.523-6.08 2.196-9.048" mask="url(#d)"/>
            <path fill="#FCC9A7" d="M275.331 141.78l-15.41 7.642 5.071 6.13 13.127-7.272z" mask="url(#d)"/>
            <path fill="#456BA6" d="M271.077 153.757s-9.94 11.92-35.18 16.505c-3.726.677-6.139-12.84-6.139-12.84l37.465-11.62 3.854 7.955z" mask="url(#d)"/>
            <path fill="#3A5C9D" d="M254.11 188.603l-43.357-.857 5.178-41.55c.466-6.282 8.66-21.257 15.455-20.826l.74.047c10.144.643 13.729 5.24 14.7 17.99 0 0 6.108 27.935 7.283 45.196" mask="url(#d)"/>
            <path fill="#FCC9A7" d="M237.594 132.017l-1.01-.064c-3.343-.212-6.56-3.012-6.33-6.1l4.081-12.657 11.363 4.554-2.774 9.974c-.188 2.544-2.575 4.467-5.33 4.293" mask="url(#d)"/>
            <path fill="#F4BE9A" d="M238.567 118.26s-.776 5.565 4.836 7.739l.964-3.422-5.8-4.317z" mask="url(#d)"/>
            <path fill="#FCC9A7" d="M257.15 110.316c-2.591 6.258-10.181 9.39-16.953 6.996-6.77-2.395-10.16-9.41-7.568-15.669 2.591-6.258 10.18-9.389 16.952-6.995 6.77 2.395 10.16 9.41 7.568 15.668" mask="url(#d)"/>
            <path fill="#FCC9A7" d="M242.51 123.54c-3.215-1.137-4.823-4.467-3.594-7.438l4.493-10.851 13.816 4.886-3.664 8.843c-1.687 4.08-6.635 6.122-11.05 4.56" mask="url(#d)"/>
            <path fill="#FCC9A7" d="M255.744 112.721l1.168 4.592c.133.73-.662 1.286-1.442 1.009l-3.33-.556 3.604-5.045z" mask="url(#d)"/>
        </g>
        <g transform="translate(164 93)">
            <mask id="f" fill="#fff">
                <use xlink:href="#e"/>
            </mask>
            <path fill="#1C2226" d="M12.182 18.186s5.404-2.17 5.52-8.763c0 0 8.323 4.042 11.348 1.906 0 0-1.623-16.51-17.916-14.495-16.292 2.017-15.99 18.62-15.99 18.62l9.918 6.973 7.12-4.24z" mask="url(#f)"/>
        </g>
        <path fill="#FCC9A7" d="M177.663 111.757c-.71 1.717-2.794 2.576-4.651 1.919-1.859-.657-2.789-2.58-2.078-4.297.71-1.717 2.795-2.577 4.653-1.92 1.859.656 2.788 2.582 2.076 4.298"/>
        <path fill="#1C2226" d="M167.344 110.136l-1.946 5.493s5.78 3.55 8.001-1.815l-4.013-.696-2.042-2.982z"/>
        <path fill="#3A5C9D" d="M175.948 135.026l2.914-5.35s-10.768-5.836-16.811-10.381l-2.04 7.764s5.67 11.27 15.937 7.967"/>
        <path fill="#456BA6" d="M169.409 135.487s7.42-.324 4.524 10.627c-2.896 10.95-4.983 16.487-4.983 16.487l-1.765 3.992 7.541 18.814-7.875 6.55s-15.64-17.746-16.248-26.961c-.61-9.214 4.06-30.214 18.806-29.51"/>
        <path fill="#31548C" d="M200.117 145.949l3.024-1.4 4.622 7.415-3.797 1.927zM174.726 185.407l1.687 3.433-7.237 5.724-2.325-2.608z"/>
        <path fill="#FCC9A7" d="M176.413 188.84l.914 2.396s.932 3.964-4.369 7.407l-3.782-4.08 7.237-5.723z"/>
        <path stroke="#0B2132" stroke-linecap="round" stroke-linejoin="round" stroke-width=".741" d="M178.612 190.2s-.528 5.554-6.943 9.03"/>
        <path fill="#000102" d="M219.44 129.918l-7.36 16.799c-.295.676-1.212.898-1.83.448l-6.085-4.446c-.414-.303-.561-.821-.361-1.274l7.315-16.485c.292-.655 1.172-.885 1.793-.468l6.128 4.132c.44.297.604.829.4 1.294"/>
        <path fill="#C3C7C8" d="M211.868 126.01l5.66 3.906-6.427 14.973-5.733-4.088z"/>
        <text font-family="Poppins-Regular, Poppins" font-size="12" transform="translate(0 -95)">
            <tspan x="19" y="468" fill="#D4DBED">Fisrt, find your bike on the map.</tspan> 
        </text>
        <g transform="translate(144 427)">
            <circle cx="3" cy="3" r="3" stroke="#979797"/>
            <circle cx="17" cy="3" r="3" stroke="#979797"/>
            <circle cx="30" cy="3" r="3" fill="#D8D8D8"/>
        </g>
        <text fill="#000" font-family="Poppins-Regular, Poppins" font-size="24" opacity=".748" transform="translate(0 -95)">
            <tspan x="19" y="102">How it works? </tspan>
        </text>
        <text fill="#FFF" font-family="Poppins-Regular, Poppins" font-size="24" transform="translate(0 -95)">
            <tspan x="18" y="438">Welcome !</tspan>
        </text>
    </g>
</svg>
