<svg xmlns="http://www.w3.org/2000/svg" xmlns:xlink="http://www.w3.org/1999/xlink" width="194" height="163" viewBox="0 0 194 163">
    <defs>
        <path id="a" d="M0 163h251.847V.976H0z"/>
    </defs>
    <g fill="none" fill-rule="evenodd">
        <path fill="#FFF" d="M0-172h320v739H0z"/>
        <path fill="#eff1f5" d="M0-84h320v191H0z"/>
        <text fill="#898989" font-family="Poppins-Regular, Poppins" font-size="12" opacity=".713" transform="translate(0 -172)">
            <tspan x="20" y="131">Choose your time and enjoy your ride!</tspan>
        </text>
        <!-- <path fill="#BEC9D2" d="M-9.624 154.85h1.183V65.2h-1.183z"/>
        <path fill="#BEC9D2" d="M-49.839 114.689h89.774v-1.178h-89.774z"/>
        <path fill="#BEC9D2" d="M23.613 145.828l-.873.872-64.417-64.329.872-.871z"/>
        <path fill="#BEC9D2" d="M-40.805 146.7l-.872-.872L22.74 81.5l.873.871z"/>
        <path fill="#BEC9D2" d="M-49.379 130.4l-.46-1.024L31.314 97.8l.46 1.023z"/>
        <path fill="#BEC9D2" d="M-25.355 73.81l1.024-.46L7.29 154.39l-1.024.46z"/>
        <path fill="#BEC9D2" d="M-24.312 154.85l-1.043-.45L6.246 73.35l1.044.45z"/>
        <path fill="#BEC9D2" d="M-49.839 98.842l.452-1.042 81.161 31.56-.451 1.04z"/> -->
        <g transform="translate(-58)">
            <path fill="#000" d="M49.144 155.07c-22.775 0-41.237-18.51-41.237-41.348 0-22.838 18.462-41.349 41.237-41.349 22.775 0 41.237 18.511 41.237 41.35 0 22.837-18.462 41.347-41.237 41.347m0-90.626C22.002 64.444.001 86.506.001 113.722 0 140.94 22.002 163 49.144 163s49.143-22.061 49.143-49.278c0-27.216-22.001-49.278-49.143-49.278"/>
            <path fill="#000" d="M49.144 76.878c-20.26 0-36.744 16.528-36.744 36.844 0 20.315 16.483 36.843 36.744 36.843 20.26 0 36.742-16.528 36.742-36.843 0-20.316-16.481-36.844-36.742-36.844m0 75.171c-21.077 0-38.224-17.193-38.224-38.327 0-21.134 17.147-38.328 38.224-38.328 21.076 0 38.224 17.194 38.224 38.328 0 21.134-17.148 38.327-38.224 38.327"/>
            <mask id="b" fill="#fff">
                <use xlink:href="#a"/>
            </mask>
            <!-- <path fill="#BEC9D2" d="M202.112 157.555h1.184V69.889h-1.184z" mask="url(#b)"/>
            <path fill="#BEC9D2" d="M158.99 114.316h87.427v-1.188H158.99z" mask="url(#b)"/>
            <path fill="#BEC9D2" d="M234.032 144.297l-.837.84-61.82-61.99.837-.84z" mask="url(#b)"/>
            <path fill="#BEC9D2" d="M172.212 145.137l-.837-.841 61.82-61.99.837.84z" mask="url(#b)"/>
            <path fill="#BEC9D2" d="M162.603 131.183l-.457-1.097 80.658-33.824.456 1.095z" mask="url(#b)"/>
            <path fill="#BEC9D2" d="M185.29 73.512l1.093-.458 33.733 80.877-1.092.459z" mask="url(#b)"/>
            <path fill="#BEC9D2" d="M186.66 154.5l-1.094-.45 33.18-81.107 1.096.451z" mask="url(#b)"/>
            <path fill="#BEC9D2" d="M162.035 97.635l.45-1.098 80.886 33.272-.449 1.097z" mask="url(#b)"/> -->
            <path fill="#000" d="M202.703 155.07c-22.774 0-41.236-18.51-41.236-41.348 0-22.838 18.462-41.349 41.236-41.349 22.775 0 41.237 18.511 41.237 41.35 0 22.837-18.462 41.347-41.237 41.347m0-90.626c-27.141 0-49.143 22.062-49.143 49.278 0 27.217 22.002 49.278 49.143 49.278 27.142 0 49.144-22.061 49.144-49.278 0-27.216-22.002-49.278-49.144-49.278" mask="url(#b)"/>
            <path fill="#000" d="M202.703 76.878c-20.26 0-36.743 16.528-36.743 36.844 0 20.315 16.483 36.843 36.743 36.843 20.261 0 36.743-16.528 36.743-36.843 0-20.316-16.482-36.844-36.743-36.844m0 75.171c-21.077 0-38.223-17.193-38.223-38.327 0-21.134 17.146-38.328 38.223-38.328 21.076 0 38.223 17.194 38.223 38.328 0 21.134-17.147 38.327-38.223 38.327" mask="url(#b)"/>
            <path fill="#2FBA24" d="M108.909 123.413c-.094 0-.19-.005-.286-.014l-60.17-5.78a2.957 2.957 0 0 1-2.47-1.862 2.973 2.973 0 0 1 .531-3.054l54.39-61.909c.317-.36.717-.637 1.163-.81l66.68-25.59a2.953 2.953 0 0 1 2.279.068c.72.326 1.28.929 1.554 1.672l32.126 86.88a2.97 2.97 0 0 1-1.746 3.815 2.957 2.957 0 0 1-3.805-1.751L168.07 31.01l-63.205 24.258-50.074 56.996 54.397 5.224a2.967 2.967 0 0 1 2.665 3.24 2.963 2.963 0 0 1-2.943 2.685" mask="url(#b)"/>
            <path fill="#2FBA24" d="M108.905 123.413a2.965 2.965 0 0 1-2.95-2.716l-5.774-67.63-1.97-15.802a2.968 2.968 0 0 1 2.571-3.313 2.962 2.962 0 0 1 3.305 2.577l1.976 15.86.013.115 5.047 59.123 54.856-84.02c-2.357-2.518-5.819-7.25-4.883-12.621.86-4.934 5.15-8.81 12.748-11.522a2.957 2.957 0 0 1 3.782 1.802 2.968 2.968 0 0 1-1.796 3.79c-3.74 1.337-8.32 3.626-8.901 6.952-.615 3.528 3.327 7.687 4.756 8.866a2.973 2.973 0 0 1 .597 3.918l-60.9 93.278a2.959 2.959 0 0 1-2.477 1.343" mask="url(#b)"/>
            <path fill="#3B464E" d="M61.098 103.501c-4.141 0-8.305.933-11.99 2.74-4.22 2.07-7.562 6.96-5.846 11.559.12.32.26.64.41.98.509 1.163 1.088 2.482.746 3.883-.192.788-.63 1.41-1.054 2.01-.342.489-.666.948-.806 1.436-.336 1.164.418 2.42 1.262 3.09 1.032.823 2.364 1.198 3.754 1.541 12.17 3.004 25.04 3.12 36.148 2.99 6.85-.078 14.798-.27 22.418-1.56 6.65-1.128 11.884-2.472 13.737-8.524.954-3.117.47-6.613-1.295-9.353-1.593-2.473-4.193-4.348-7.32-5.278-4.204-1.25-8.252-.439-12.537.42-1.589.319-3.23.649-4.877.862-3.669.478-7.351.268-10.943-.623-2.693-.668-5.29-1.717-7.802-2.732-2.563-1.036-5.214-2.108-7.917-2.745a26.651 26.651 0 0 0-6.088-.696m17.63 31.746c-9.965 0-20.97-.465-31.507-3.065-1.494-.368-3.056-.813-4.321-1.82-1.259-1.002-2.293-2.835-1.765-4.666.21-.727.622-1.313 1.02-1.878.36-.51.7-.992.826-1.508.22-.91-.21-1.892-.665-2.933-.15-.343-.307-.699-.44-1.056-2.012-5.39 1.767-11.053 6.583-13.414a28.545 28.545 0 0 1 19.065-2.154c2.814.662 5.517 1.754 8.133 2.812 2.464.996 5.01 2.026 7.603 2.668a28.029 28.029 0 0 0 10.398.593c1.596-.208 3.213-.533 4.776-.847 4.274-.856 8.694-1.744 13.248-.387 3.467 1.032 6.359 3.125 8.145 5.895 1.998 3.103 2.546 7.063 1.465 10.594-2.268 7.41-9.275 8.597-14.906 9.55-7.726 1.31-15.74 1.504-22.647 1.584l-.007-.743.007.743c-1.634.02-3.308.032-5.01.032" mask="url(#b)"/>
            <path fill="#A6B3BD" d="M55.851 114.665c0 3.942-3.185 7.135-7.115 7.135-3.931 0-7.117-3.193-7.117-7.135 0-3.941 3.186-7.135 7.117-7.135 3.93 0 7.115 3.194 7.115 7.135" mask="url(#b)"/>
            <path fill="#7C8B96" d="M53.058 114.665A4.329 4.329 0 0 1 48.735 119a4.33 4.33 0 0 1-4.323-4.335 4.33 4.33 0 0 1 4.323-4.335 4.329 4.329 0 0 1 4.323 4.335M108.907 129.873c-5.423 0-9.82-4.406-9.82-9.843 0-5.44 4.397-9.847 9.82-9.847s9.82 4.408 9.82 9.847c0 5.437-4.397 9.843-9.82 9.843m0-23.77c-7.67 0-13.888 6.234-13.888 13.927 0 7.688 6.217 13.922 13.888 13.922 7.667 0 13.884-6.234 13.884-13.922 0-7.693-6.217-13.926-13.884-13.926" mask="url(#b)"/>
            <path fill="#A6B3BD" d="M47.213 128.507a3.183 3.183 0 0 1-3.179 3.187 3.183 3.183 0 0 1-3.179-3.187 3.183 3.183 0 0 1 3.18-3.188 3.183 3.183 0 0 1 3.178 3.188" mask="url(#b)"/>
            <path fill="#3B464E" d="M112.36 120.028a3.459 3.459 0 0 1-3.455 3.464 3.458 3.458 0 0 1-3.454-3.464 3.459 3.459 0 0 1 3.454-3.464c1.909 0 3.455 1.55 3.455 3.464" mask="url(#b)"/>
            <path fill="#3B464E" d="M104.028 140.42l-2.77-.893 12.525-39.06 2.77.894z" mask="url(#b)"/>
            <path fill="#000" d="M120.612 102.05h-9.762a2.004 2.004 0 0 1-2.002-2.007V98.27c0-1.11.896-2.01 2.002-2.01h9.762c1.106 0 2.002.9 2.002 2.01v1.773c0 1.11-.896 2.008-2.002 2.008M107.598 142.638h-9.762a2.004 2.004 0 0 1-2.002-2.009v-1.773c0-1.108.896-2.008 2.002-2.008h9.762c1.106 0 2.002.9 2.002 2.008v1.773c0 1.11-.896 2.009-2.002 2.009" mask="url(#b)"/>
            <path fill="#7C8B96" d="M186.357 6.814h-17.924V2.84h17.924c.76 0 1.375.617 1.375 1.378v1.219c0 .762-.615 1.378-1.375 1.378" mask="url(#b)"/>
            <path fill="#000" d="M171.652 8.678h-13.971a2.667 2.667 0 0 1-2.663-2.671v-2.36A2.667 2.667 0 0 1 157.68.974h13.971a2.668 2.668 0 0 1 2.665 2.671v2.36a2.668 2.668 0 0 1-2.665 2.672" mask="url(#b)"/>
            <path fill="#7C8B96" d="M174.674 7.564c.03.458.289.864.509 1.266.664 1.219.986 2.836.133 3.931-.412.53-1.035.852-1.484 1.35-.447.5-.661 1.353-.167 1.805.251.229.617.285.957.278 1.096-.023 2.127-.602 2.89-1.392.763-.79 1.287-1.78 1.736-2.785.816-1.826 1.653-4.906-.18-6.477-1.313-1.125-4.515.218-4.394 2.024M84.453 34.812c.244 1.235.797 2.472 1.812 3.213.582.426 1.281.663 1.987.807 2.024.41 4.368-.037 5.639-1.668.277-.356.501-.827.336-1.247-.174-.435-.713-.62-1.176-.56-.464.06-.881.302-1.305.498-1.15.53-2.595.699-3.623-.042-1.158-.836-1.364-2.548-.9-3.902.274-.803.657-1.7-.177-2.284-.54-.38-1.343-.245-1.82.14-1.233.996-1.033 3.729-.773 5.045" mask="url(#b)"/>
            <path fill="#000" d="M113.11 26.793c-7.667-1.9-15.872 2.753-23.495.684-2.48-.673-4.826-2.047-7.395-2.034-.867.004-1.775.19-2.435.755-.661.562-.99 1.573-.578 2.34.3.562.91.878 1.497 1.124 3.117 1.312 6.856 1.763 8.996 4.385 1.292 1.585 1.795 3.771 3.335 5.116 1.758 1.533 4.433 1.53 6.616.72 2.184-.812 4.04-2.298 6.001-3.559 1.771-1.14 3.689-2.12 5.763-2.474 1.003-.17 2.029-.192 3.024-.407.993-.216 1.99-.658 2.593-1.48 1.9-2.588-1.9-4.669-3.922-5.17" mask="url(#b)"/>
        </g>
    </g>
</svg>
