<svg xmlns="http://www.w3.org/2000/svg" xmlns:xlink="http://www.w3.org/1999/xlink" width="70" height="18" viewBox="0 0 70 18">
    <defs>
        <path id="a" d="M.02.05h4.931v1.915H.021z"/>
        <path id="c" d="M0 18h70V0H0z"/>
    </defs>
    <g fill="none" fill-rule="evenodd">
        <path fill="#FFF" d="M-125-23h320v705h-320z"/>
        <g>
            <path fill="#2FBA24" d="M28.494 7c-.699-.724-1.725-2.087-1.447-3.633.255-1.42 1.527-2.537 3.78-3.317a.884.884 0 0 1 1.122.518.849.849 0 0 1-.533 1.092c-1.11.384-2.468 1.043-2.64 2.001-.182 1.016.987 2.213 1.41 2.552"/>
            <path fill="#7C8B96" d="M33.906 2H29V1h4.906c.052 0 .094.04.094.091v.818c0 .05-.042.091-.094.091"/>
            <g transform="translate(25)">
                <mask id="b" fill="#fff">
                    <use xlink:href="#a"/>
                </mask>
                <path fill="#000" d="M4.773 1.965H.199a.177.177 0 0 1-.179-.174V.224C.02.127.1.049.2.049h4.573c.098 0 .178.078.178.175V1.79c0 .096-.08.174-.178.174" mask="url(#b)"/>
            </g>
            <path fill="#7C8B96" d="M30.381 1.66c.009.124.085.234.15.344.196.33.29.768.04 1.065-.122.144-.306.231-.438.366-.132.136-.195.367-.05.49.075.061.182.077.283.075.323-.006.627-.163.852-.378.225-.214.38-.482.511-.754.24-.495.488-1.33-.053-1.756-.387-.305-1.33.059-1.295.548"/>
            <mask id="d" fill="#fff">
                <use xlink:href="#c"/>
            </mask>
            <path fill="#2FBA24" d="M14 12h13v-1H14zM8.003 15.526c.591-.499.887-1.203.887-2.11 0-.893-.303-1.593-.91-2.1-.605-.506-1.447-.76-2.525-.76H2.043v5.72H5.5c1.078 0 1.912-.25 2.503-.75zm-5.96-6.513h3.412c1.003 0 1.77-.235 2.301-.704.531-.469.797-1.127.797-1.974 0-.817-.262-1.46-.786-1.93-.524-.468-1.324-.703-2.402-.703H2.043v5.31zm8.048 2.11c.606.727.909 1.582.909 2.565 0 1.301-.438 2.345-1.313 3.132C8.81 17.607 7.543 18 5.882 18H0V2h5.792c1.586 0 2.791.356 3.614 1.067s1.235 1.687 1.235 2.927c0 1.03-.273 1.861-.82 2.497-.546.635-1.245 1.044-2.098 1.225.972.212 1.762.681 2.368 1.408z" mask="url(#d)"/>
            <path fill="#000" d="M21.474 8.579c-.347-.63-.82-1.1-1.421-1.408a4.246 4.246 0 0 0-1.963-.462c-1.128 0-2.075.358-2.842 1.073-.767.716-1.18 1.767-1.24 3.152h7.917c.045-.938-.106-1.724-.451-2.355m2.436 3.371h-9.902c.045 1.447.447 2.533 1.206 3.256.76.724 1.688 1.085 2.786 1.085.992 0 1.823-.257 2.492-.773.67-.516 1.08-1.205 1.23-2.067h2.188a5.39 5.39 0 0 1-1.004 2.355 5.228 5.228 0 0 1-2.019 1.617c-.827.385-1.76.577-2.797.577-1.188 0-2.24-.262-3.158-.785-.917-.523-1.635-1.274-2.154-2.251-.519-.978-.778-2.128-.778-3.453 0-1.323.26-2.478.778-3.463.519-.985 1.237-1.74 2.154-2.263C15.85 5.262 16.902 5 18.09 5c1.203 0 2.252.262 3.147.785a5.348 5.348 0 0 1 2.052 2.101c.474.878.711 1.848.711 2.91 0 .446-.03.831-.09 1.154M36.072 6.293c1.043.862 1.686 2.017 1.928 3.464h-2.178c-.151-.908-.563-1.62-1.236-2.136s-1.509-.774-2.507-.774c-.726 0-1.387.17-1.984.508-.598.339-1.078.859-1.441 1.559s-.544 1.566-.544 2.598c0 1.031.181 1.897.544 2.597.363.7.843 1.22 1.44 1.559a3.952 3.952 0 0 0 1.985.508c.998 0 1.834-.262 2.507-.785s1.085-1.24 1.236-2.148H38c-.242 1.463-.885 2.621-1.928 3.475-1.044.855-2.36 1.282-3.947 1.282-1.195 0-2.254-.262-3.176-.785-.923-.523-1.645-1.274-2.166-2.251-.522-.978-.783-2.128-.783-3.452 0-1.324.26-2.479.783-3.464.521-.985 1.243-1.74 2.166-2.263.922-.523 1.98-.785 3.176-.785 1.588 0 2.903.431 3.947 1.293" mask="url(#d)"/>
            <path fill="#2FBA24" d="M40 18h2V1h-2zM48.04 7.355c-.603.339-1.089.859-1.46 1.559-.37.7-.555 1.566-.555 2.597 0 1.016.185 1.875.556 2.575.37.7.856 1.22 1.459 1.559.602.339 1.26.508 1.97.508.712 0 1.37-.17 1.972-.508.602-.339 1.089-.858 1.46-1.559.37-.7.554-1.559.554-2.575 0-1.03-.185-1.897-.555-2.597-.37-.7-.857-1.22-1.46-1.559a3.958 3.958 0 0 0-1.97-.508c-.712 0-1.369.17-1.971.508m5.053-1.57c.907.524 1.618 1.278 2.134 2.263.515.985.773 2.14.773 3.463 0 1.325-.258 2.475-.773 3.453-.516.977-1.227 1.728-2.134 2.25-.908.524-1.935.786-3.082.786-1.147 0-2.175-.262-3.082-.785s-1.622-1.274-2.145-2.251c-.523-.978-.784-2.128-.784-3.453 0-1.323.261-2.478.784-3.463.523-.985 1.238-1.74 2.145-2.263.907-.523 1.935-.785 3.082-.785 1.147 0 2.174.262 3.082.785M70 5v12.79h-1.99v-3.005c-.306 1.04-.85 1.837-1.63 2.388-.78.551-1.687.827-2.722.827-1.385 0-2.508-.477-3.368-1.433-.86-.955-1.29-2.326-1.29-4.112V5h1.99v7.246c0 1.273.306 2.256.918 2.947.613.69 1.444 1.036 2.494 1.036 1.093 0 1.968-.376 2.624-1.13.656-.753.984-1.852.984-3.296V5H70zM15 12h10v-1H15z" mask="url(#d)"/>
        </g>
    </g>
</svg>
