<svg xmlns="http://www.w3.org/2000/svg" xmlns:xlink="http://www.w3.org/1999/xlink" width="24" height="24" viewBox="0 0 24 24">
    <defs>
        <path id="a" d="M0 .785h441.841V245.18H0z"/>
        <path id="c" d="M0 476h441.842V.785H0z"/>
    </defs>
    <g fill="none" fill-rule="evenodd">
        <path fill="#FFF" d="M-23-301h320v564H-23z"/>
        <g transform="translate(-90 -206)">
            <mask id="b" fill="#fff">
                <use xlink:href="#a"/>
            </mask>
            <path fill="#EFF1F5" d="M16.37 95.826c-3.572-13.75 9.49-26.386 22.071-28.84 12.583-2.456 25.722.884 38.176-2.289 19.015-4.846 32.25-23.386 46.57-38.232C141.056 7.94 167.02-6.463 189.226 4.702c13.408 6.741 22.118 21.196 32.173 33.213 10.054 12.02 24.484 22.642 38.609 18.096 6.163-1.983 11.32-6.62 16.907-10.15 14.153-8.943 31.78-10.659 47.095-4.58 22.872 9.076 38.355 33.295 60.009 45.568 14.476 8.203 31.859 11.215 43.213 24.203 12.135 13.883 13.89 35.12 14.521 54.547.11 3.339.205 6.705-.29 10-1.305 8.691-6.572 16.012-12.516 21.78-25.51 24.755-62.211 26.057-95.465 32.412-21.483 4.107-42.572 10.807-64.22 13.614-20.876 2.707-41.977 1.757-62.977.801-28.71-1.306-57.82-2.685-85.225-12.384-8.116-2.872-16.154-6.538-22.833-12.453-6.348-5.621-11.214-13.04-15.791-20.518-17.078-27.892-32.925-59.63-60.303-73.847-5.833-3.029-12.193-5.261-16.924-10.141-4.73-4.882-7.18-13.63-3.253-19.337" mask="url(#b)"/>
            <mask id="d" fill="#fff">
                <use xlink:href="#c"/>
            </mask>
            <path fill="#262E46" d="M63.179 476h325.565V167.161H63.18z" mask="url(#d)"/>
        </g>
        <path fill="#FFF" d="M-23-301h297v564H-23z" opacity=".967"/>
        <g fill="#000">
            <path d="M11.115 8.098c.045.09.091.18.137.248.046.068.114.135.16.203.069.068.138.135.23.203.068.045.16.113.274.135a1.43 1.43 0 0 0 .595.113c.092 0 .207 0 .298-.023a.828.828 0 0 0 .252-.09h.023c.092-.045.183-.09.275-.158.068-.045.137-.112.206-.18l.023-.023c.068-.067.114-.135.16-.203.046-.067.092-.135.115-.225 0-.023 0-.023.022-.045.046-.09.07-.203.092-.294.023-.09.023-.203.023-.293 0-.09 0-.203-.023-.293a2.072 2.072 0 0 0-.092-.293 1.279 1.279 0 0 0-.274-.406l-.046-.045c-.069-.068-.138-.113-.23-.18-.09-.046-.16-.091-.251-.136a1.305 1.305 0 0 0-.275-.09C12.695 6 12.603 6 12.511 6c-.091 0-.206 0-.297.023a1.305 1.305 0 0 0-.275.09h-.023c-.092.045-.183.09-.252.135-.091.068-.16.113-.229.18a1.467 1.467 0 0 0-.183.204 2.45 2.45 0 0 0-.137.248c-.046.09-.07.18-.092.27-.023.113-.023.203-.023.294 0 .09 0 .203.023.293.023.18.069.27.092.36zM13.369 15.735h-.558V10.55c0-.296-.267-.55-.631-.55H9.63c-.34 0-.631.233-.631.55v1.143c0 .296.267.55.631.55h.51v3.514h-.51c-.34 0-.631.232-.631.55v1.143c0 .296.267.55.631.55h3.738c.34 0 .631-.233.631-.55v-1.143c0-.318-.291-.572-.631-.572z"/>
            <path fill-rule="nonzero" d="M12 0C5.375 0 0 5.375 0 12s5.375 12 12 12 12-5.375 12-12S18.625 0 12 0zm0 22.42C6.252 22.42 1.58 17.748 1.58 12S6.252 1.58 12 1.58 22.42 6.252 22.42 12 17.748 22.42 12 22.42z"/>
        </g>
    </g>
</svg>
